<svg preserveAspectRatio="none" width="100%" height="100%" overflow="visible" style="display: block;" viewBox="0 0 139 40" fill="none" xmlns="http://www.w3.org/2000/svg">
<g id="Group">
<path id="BG" d="M137.692 35.387C137.692 37.5186 135.93 39.2453 133.749 39.2453H4.71725C2.53808 39.2453 0.769231 37.5186 0.769231 35.387V4.61808C0.769231 2.48744 2.53808 0.754717 4.71725 0.754717H133.748C135.93 0.754717 137.691 2.48744 137.691 4.61808L137.692 35.387Z" fill="var(--fill-0, #0A090B)"/>
<g id="Border">
</g>
<g id="Icon">
<g id="Vector">
<path d="M30.9005 19.784C30.8708 16.561 33.6072 14.993 33.7323 14.92C32.1826 12.717 29.7805 12.416 28.9364 12.392C26.919 12.185 24.9621 13.569 23.9344 13.569C22.8862 13.569 21.3036 12.412 19.5979 12.446C17.4031 12.479 15.3497 13.718 14.2236 15.642C11.8995 19.565 13.6328 25.33 15.8595 28.501C16.9733 30.054 18.2749 31.788 19.9785 31.727C21.6451 31.66 22.2677 30.691 24.279 30.691C26.2718 30.691 26.8564 31.727 28.5938 31.688C30.3826 31.66 31.5087 30.128 32.5836 28.561C33.8708 26.781 34.3877 25.028 34.4082 24.938C34.3662 24.924 30.9344 23.647 30.9005 19.784Z" fill="white"/>
<path d="M27.6185 10.306C28.5149 9.21299 29.1282 7.72599 28.9579 6.21699C27.6605 6.27299 26.0379 7.09199 25.1036 8.16099C24.2769 9.10299 23.5385 10.647 23.7292 12.099C25.1867 12.205 26.6831 11.382 27.6185 10.306Z" fill="white"/>
</g>
</g>
<g id="Download on the">
<path id="D" d="M50.3077 10.009C50.3077 11.186 49.9457 12.072 49.2226 12.667C48.5528 13.216 47.601 13.491 46.3682 13.491C45.7569 13.491 45.2339 13.465 44.7959 13.413V6.982C45.3672 6.892 45.9826 6.846 46.6472 6.846C47.8215 6.846 48.7067 7.095 49.3036 7.593C49.9723 8.156 50.3077 8.961 50.3077 10.009ZM49.1744 10.038C49.1744 9.275 48.9672 8.69 48.5528 8.282C48.1385 7.875 47.5333 7.671 46.7364 7.671C46.398 7.671 46.1097 7.693 45.8708 7.739V12.628C46.0031 12.648 46.2451 12.657 46.5969 12.657C47.4195 12.657 48.0544 12.434 48.5015 11.988C48.9487 11.542 49.1744 10.892 49.1744 10.038Z" fill="var(--fill-0, white)"/>
<path id="o" d="M56.3169 11.037C56.3169 11.762 56.1046 12.356 55.68 12.822C55.2349 13.301 54.6451 13.54 53.9087 13.54C53.199 13.54 52.6339 13.311 52.2123 12.851C51.7918 12.392 51.5815 11.813 51.5815 11.115C51.5815 10.385 51.798 9.786 52.2328 9.321C52.6677 8.856 53.2523 8.623 53.9887 8.623C54.6985 8.623 55.2687 8.852 55.7005 9.311C56.1108 9.757 56.3169 10.333 56.3169 11.037ZM55.2021 11.071C55.2021 10.636 55.1056 10.263 54.9139 9.952C54.6882 9.576 54.3672 9.388 53.9498 9.388C53.518 9.388 53.1897 9.576 52.9641 9.952C52.7713 10.263 52.6759 10.642 52.6759 11.09C52.6759 11.525 52.7723 11.898 52.9641 12.209C53.1969 12.585 53.521 12.773 53.9395 12.773C54.3497 12.773 54.6718 12.582 54.9036 12.199C55.1026 11.882 55.2021 11.506 55.2021 11.071Z" fill="var(--fill-0, white)"/>
<path id="w" d="M64.3744 8.719L62.8615 13.433H61.8769L61.2503 11.386C61.0913 10.875 60.9621 10.367 60.8615 9.863H60.8421C60.7487 10.381 60.6195 10.888 60.4533 11.386L59.7877 13.433H58.7918L57.3692 8.719H58.4739L59.0205 10.96C59.1528 11.49 59.2615 11.995 59.3487 12.473H59.3682C59.4482 12.079 59.5805 11.577 59.7672 10.97L60.4533 8.72H61.3292L61.9867 10.922C62.1456 11.459 62.2749 11.976 62.3744 12.474H62.4041C62.4769 11.989 62.5867 11.472 62.7323 10.922L63.319 8.72H64.3744V8.719Z" fill="var(--fill-0, white)"/>
<path id="n" d="M69.9467 13.433H68.8718V10.733C68.8718 9.90101 68.5477 9.48501 67.8974 9.48501C67.5785 9.48501 67.321 9.59901 67.121 9.82801C66.9231 10.057 66.8226 10.327 66.8226 10.636V13.432H65.7477V10.066C65.7477 9.65201 65.7344 9.20301 65.7087 8.71701H66.6533L66.7036 9.45401H66.7333C66.8585 9.22501 67.0451 9.03601 67.2903 8.88501C67.5815 8.70901 67.9077 8.62001 68.2646 8.62001C68.7159 8.62001 69.0913 8.76201 69.3897 9.04701C69.761 9.39601 69.9467 9.91701 69.9467 10.609V13.433V13.433Z" fill="var(--fill-0, white)"/>
<path id="l" d="M72.9108 13.433H71.8369V6.556H72.9108V13.433Z" fill="var(--fill-0, white)"/>
<path id="o_2" d="M79.239 11.037C79.239 11.762 79.0267 12.356 78.6021 12.822C78.1569 13.301 77.5662 13.54 76.8308 13.54C76.12 13.54 75.5549 13.311 75.1344 12.851C74.7138 12.392 74.5036 11.813 74.5036 11.115C74.5036 10.385 74.72 9.786 75.1549 9.321C75.5897 8.856 76.1744 8.623 76.9097 8.623C77.6205 8.623 78.1897 8.852 78.6226 9.311C79.0328 9.757 79.239 10.333 79.239 11.037ZM78.1231 11.071C78.1231 10.636 78.0267 10.263 77.8349 9.952C77.6103 9.576 77.2882 9.388 76.8718 9.388C76.439 9.388 76.1108 9.576 75.8862 9.952C75.6933 10.263 75.598 10.642 75.598 11.09C75.598 11.525 75.6944 11.898 75.8862 12.209C76.119 12.585 76.4431 12.773 76.8615 12.773C77.2718 12.773 77.5928 12.582 77.8246 12.199C78.0246 11.882 78.1231 11.506 78.1231 11.071Z" fill="var(--fill-0, white)"/>
<path id="a" d="M84.441 13.433H83.4759L83.3959 12.89H83.3662C83.0359 13.323 82.5651 13.54 81.9538 13.54C81.4974 13.54 81.1282 13.397 80.8503 13.113C80.598 12.855 80.4718 12.534 80.4718 12.153C80.4718 11.577 80.718 11.138 81.2133 10.834C81.7077 10.53 82.4031 10.381 83.2985 10.388V10.3C83.2985 9.679 82.9641 9.369 82.2944 9.369C81.8174 9.369 81.3969 9.486 81.0339 9.718L80.8154 9.03C81.2646 8.759 81.8195 8.623 82.4739 8.623C83.7374 8.623 84.3713 9.273 84.3713 10.573V12.309C84.3713 12.78 84.3949 13.155 84.441 13.433ZM83.3251 11.813V11.086C82.1395 11.066 81.5467 11.383 81.5467 12.036C81.5467 12.282 81.6144 12.466 81.7528 12.589C81.8913 12.712 82.0677 12.773 82.278 12.773C82.5138 12.773 82.7344 12.7 82.9354 12.555C83.1374 12.409 83.2615 12.224 83.3077 11.997C83.319 11.946 83.3251 11.884 83.3251 11.813Z" fill="var(--fill-0, white)"/>
<path id="d" d="M90.5487 13.433H89.5949L89.5446 12.676H89.5149C89.2103 13.252 88.6913 13.54 87.9621 13.54C87.3795 13.54 86.8944 13.317 86.5098 12.871C86.1251 12.425 85.9333 11.846 85.9333 11.135C85.9333 10.372 86.1416 9.754 86.56 9.282C86.9651 8.842 87.4615 8.622 88.0523 8.622C88.7015 8.622 89.1559 8.835 89.4144 9.262H89.4349V6.556H90.5108V12.163C90.5108 12.622 90.5231 13.045 90.5487 13.433ZM89.4349 11.445V10.659C89.4349 10.523 89.4246 10.413 89.4051 10.329C89.3446 10.077 89.2144 9.865 89.0164 9.694C88.8164 9.523 88.5754 9.437 88.2974 9.437C87.8964 9.437 87.5826 9.592 87.3518 9.903C87.1231 10.214 87.0072 10.611 87.0072 11.096C87.0072 11.562 87.1169 11.94 87.3374 12.231C87.5703 12.541 87.8841 12.696 88.2769 12.696C88.6297 12.696 88.9118 12.567 89.1262 12.308C89.3333 12.069 89.4349 11.781 89.4349 11.445Z" fill="var(--fill-0, white)"/>
<path id="o_3" d="M99.7415 11.037C99.7415 11.762 99.5292 12.356 99.1046 12.822C98.6595 13.301 98.0708 13.54 97.3333 13.54C96.6246 13.54 96.0595 13.311 95.6369 12.851C95.2164 12.392 95.0062 11.813 95.0062 11.115C95.0062 10.385 95.2226 9.786 95.6574 9.321C96.0923 8.856 96.6769 8.623 97.4144 8.623C98.1231 8.623 98.6944 8.852 99.1251 9.311C99.5354 9.757 99.7415 10.333 99.7415 11.037ZM98.6277 11.071C98.6277 10.636 98.5313 10.263 98.3395 9.952C98.1128 9.576 97.7928 9.388 97.3744 9.388C96.9436 9.388 96.6154 9.576 96.3887 9.952C96.1959 10.263 96.1005 10.642 96.1005 11.09C96.1005 11.525 96.1969 11.898 96.3887 12.209C96.6215 12.585 96.9456 12.773 97.3641 12.773C97.7744 12.773 98.0974 12.582 98.3292 12.199C98.5272 11.882 98.6277 11.506 98.6277 11.071Z" fill="var(--fill-0, white)"/>
<path id="n_2" d="M105.521 13.433H104.447V10.733C104.447 9.90101 104.123 9.48501 103.472 9.48501C103.153 9.48501 102.895 9.59901 102.696 9.82801C102.497 10.057 102.398 10.327 102.398 10.636V13.432H101.322V10.066C101.322 9.65201 101.31 9.20301 101.284 8.71701H102.228L102.278 9.45401H102.308C102.434 9.22501 102.621 9.03601 102.865 8.88501C103.157 8.70901 103.482 8.62001 103.84 8.62001C104.29 8.62001 104.666 8.76201 104.964 9.04701C105.336 9.39601 105.521 9.91701 105.521 10.609V13.433V13.433Z" fill="var(--fill-0, white)"/>
<path id="t" d="M112.755 9.504H111.571V11.794C111.571 12.376 111.782 12.667 112.198 12.667C112.391 12.667 112.551 12.651 112.677 12.618L112.705 13.413C112.492 13.491 112.213 13.53 111.87 13.53C111.445 13.53 111.115 13.404 110.876 13.152C110.636 12.9 110.517 12.476 110.517 11.881V9.504H109.81V8.719H110.517V7.855L111.57 7.545V8.71801H112.754V9.504H112.755Z" fill="var(--fill-0, white)"/>
<path id="h" d="M118.445 13.433H117.369V10.753C117.369 9.908 117.045 9.485 116.396 9.485C115.897 9.485 115.557 9.73 115.37 10.22C115.338 10.323 115.32 10.449 115.32 10.597V13.432H114.246V6.556H115.32V9.397H115.341C115.679 8.88 116.164 8.622 116.793 8.622C117.238 8.622 117.606 8.764 117.898 9.049C118.263 9.404 118.445 9.932 118.445 10.63V13.433V13.433Z" fill="var(--fill-0, white)"/>
<path id="e" d="M124.315 10.853C124.315 11.041 124.3 11.199 124.275 11.328H121.051C121.066 11.794 121.219 12.149 121.518 12.395C121.791 12.615 122.143 12.725 122.573 12.725C123.05 12.725 123.485 12.651 123.877 12.502L124.045 13.23C123.587 13.424 123.047 13.521 122.423 13.521C121.674 13.521 121.084 13.306 120.657 12.876C120.229 12.446 120.016 11.869 120.016 11.145C120.016 10.434 120.214 9.84199 120.613 9.36999C121.03 8.866 121.593 8.614 122.304 8.614C122.999 8.614 123.527 8.866 123.884 9.36999C124.172 9.76999 124.315 10.265 124.315 10.853ZM123.289 10.582C123.297 10.271 123.227 10.003 123.081 9.777C122.894 9.486 122.61 9.34 122.226 9.34C121.875 9.34 121.589 9.482 121.37 9.767C121.192 9.994 121.086 10.265 121.051 10.582H123.289Z" fill="var(--fill-0, white)"/>
</g>
<g id="App Store">
<path id="A" d="M55.0205 31.504H52.6913L51.4154 27.595H46.9805L45.7651 31.504H43.4974L47.8913 18.196H50.6051L55.0205 31.504ZM51.0308 25.955L49.8769 22.48C49.7549 22.125 49.5261 21.289 49.1887 19.973H49.1477C49.0133 20.539 48.7969 21.375 48.4995 22.48L47.3661 25.955H51.0308V25.955Z" fill="var(--fill-0, white)"/>
<path id="p" d="M66.32 26.588C66.32 28.22 65.8677 29.51 64.9631 30.457C64.1528 31.3 63.1466 31.721 61.9456 31.721C60.6492 31.721 59.7179 31.267 59.1508 30.359H59.1097V35.414H56.9231V25.067C56.9231 24.041 56.8954 22.988 56.842 21.908H58.7651L58.8872 23.429H58.9282C59.6574 22.283 60.7641 21.711 62.2492 21.711C63.4102 21.711 64.3795 22.158 65.1549 23.053C65.9323 23.949 66.32 25.127 66.32 26.588ZM64.0923 26.666C64.0923 25.732 63.8769 24.962 63.4441 24.356C62.9713 23.724 62.3364 23.408 61.5405 23.408C61.001 23.408 60.5107 23.584 60.0728 23.931C59.6338 24.281 59.3466 24.738 59.2123 25.304C59.1446 25.568 59.1107 25.784 59.1107 25.954V27.554C59.1107 28.252 59.3302 28.841 59.7692 29.322C60.2082 29.803 60.7784 30.043 61.48 30.043C62.3036 30.043 62.9446 29.733 63.4031 29.115C63.8625 28.496 64.0923 27.68 64.0923 26.666Z" fill="var(--fill-0, white)"/>
<path id="p_2" d="M77.64 26.588C77.64 28.22 77.1877 29.51 76.282 30.457C75.4728 31.3 74.4667 31.721 73.2656 31.721C71.9692 31.721 71.0379 31.267 70.4718 30.359H70.4308V35.414H68.2441V25.067C68.2441 24.041 68.2164 22.988 68.1631 21.908H70.0861L70.2082 23.429H70.2492C70.9774 22.283 72.0841 21.711 73.5702 21.711C74.7302 21.711 75.6995 22.158 76.4769 23.053C77.2513 23.949 77.64 25.127 77.64 26.588ZM75.4123 26.666C75.4123 25.732 75.1959 24.962 74.7631 24.356C74.2902 23.724 73.6574 23.408 72.8605 23.408C72.32 23.408 71.8308 23.584 71.3918 23.931C70.9528 24.281 70.6667 24.738 70.5323 25.304C70.4656 25.568 70.4308 25.784 70.4308 25.954V27.554C70.4308 28.252 70.6502 28.841 71.0872 29.322C71.5261 29.802 72.0964 30.043 72.8 30.043C73.6236 30.043 74.2646 29.733 74.7231 29.115C75.1826 28.496 75.4123 27.68 75.4123 26.666Z" fill="var(--fill-0, white)"/>
<path id="S" d="M90.2964 27.772C90.2964 28.904 89.8933 29.825 89.0841 30.536C88.1949 31.313 86.9569 31.701 85.3661 31.701C83.8974 31.701 82.72 31.425 81.8287 30.872L82.3354 29.095C83.2954 29.661 84.3487 29.945 85.4964 29.945C86.32 29.945 86.961 29.763 87.4215 29.401C87.88 29.039 88.1087 28.553 88.1087 27.947C88.1087 27.407 87.92 26.952 87.5415 26.583C87.1651 26.214 86.5364 25.871 85.6584 25.554C83.2687 24.685 82.0749 23.412 82.0749 21.738C82.0749 20.644 82.4933 19.747 83.3313 19.049C84.1661 18.35 85.28 18.001 86.6728 18.001C87.9149 18.001 88.9467 18.212 89.7702 18.633L89.2236 20.371C88.4543 19.963 87.5846 19.759 86.6113 19.759C85.842 19.759 85.241 19.944 84.8102 20.312C84.4461 20.641 84.2636 21.042 84.2636 21.517C84.2636 22.043 84.4718 22.478 84.8902 22.82C85.2543 23.136 85.9159 23.478 86.8759 23.847C88.0502 24.308 88.9128 24.847 89.4677 25.465C90.0205 26.081 90.2964 26.852 90.2964 27.772Z" fill="var(--fill-0, white)"/>
<path id="t_2" d="M97.5261 23.508H95.1159V28.167C95.1159 29.352 95.5405 29.944 96.3918 29.944C96.7826 29.944 97.1067 29.911 97.3631 29.845L97.4236 31.464C96.9928 31.621 96.4256 31.7 95.7231 31.7C94.8595 31.7 94.1846 31.443 93.6974 30.93C93.2123 30.416 92.9682 29.554 92.9682 28.343V23.506H91.5323V21.906H92.9682V20.149L95.1159 19.517V21.906H97.5261V23.508Z" fill="var(--fill-0, white)"/>
<path id="o_4" d="M108.401 26.627C108.401 28.102 107.968 29.313 107.105 30.26C106.199 31.235 104.997 31.721 103.498 31.721C102.054 31.721 100.905 31.254 100.047 30.32C99.1897 29.386 98.761 28.207 98.761 26.786C98.761 25.299 99.202 24.081 100.087 23.134C100.97 22.186 102.162 21.712 103.66 21.712C105.105 21.712 106.267 22.179 107.144 23.114C107.983 24.021 108.401 25.192 108.401 26.627ZM106.132 26.696C106.132 25.811 105.938 25.052 105.546 24.419C105.087 23.653 104.432 23.271 103.583 23.271C102.704 23.271 102.036 23.654 101.577 24.419C101.185 25.053 100.991 25.824 100.991 26.736C100.991 27.621 101.185 28.38 101.577 29.012C102.05 29.778 102.711 30.16 103.563 30.16C104.398 30.16 105.053 29.77 105.526 28.992C105.929 28.347 106.132 27.58 106.132 26.696Z" fill="var(--fill-0, white)"/>
<path id="r" d="M115.509 23.783C115.292 23.744 115.062 23.724 114.819 23.724C114.05 23.724 113.455 24.007 113.037 24.574C112.673 25.074 112.49 25.706 112.49 26.469V31.504H110.305L110.325 24.93C110.325 23.824 110.297 22.817 110.243 21.909H112.148L112.228 23.745H112.288C112.519 23.114 112.883 22.606 113.382 22.225C113.869 21.882 114.395 21.711 114.962 21.711C115.164 21.711 115.347 21.725 115.509 21.75V23.783Z" fill="var(--fill-0, white)"/>
<path id="e_2" d="M125.288 26.252C125.288 26.634 125.263 26.956 125.208 27.219H118.648C118.674 28.167 118.991 28.892 119.6 29.392C120.153 29.839 120.868 30.063 121.746 30.063C122.717 30.063 123.603 29.912 124.4 29.609L124.743 31.089C123.811 31.485 122.712 31.682 121.443 31.682C119.917 31.682 118.719 31.244 117.847 30.369C116.977 29.494 116.542 28.319 116.542 26.845C116.542 25.398 116.947 24.193 117.758 23.232C118.607 22.206 119.755 21.693 121.199 21.693C122.617 21.693 123.691 22.206 124.42 23.232C124.998 24.047 125.288 25.055 125.288 26.252ZM123.203 25.699C123.217 25.067 123.075 24.521 122.778 24.06C122.4 23.467 121.818 23.171 121.036 23.171C120.321 23.171 119.739 23.46 119.295 24.04C118.931 24.501 118.715 25.054 118.648 25.698H123.203V25.699Z" fill="var(--fill-0, white)"/>
</g>
</g>
</svg>
