<svg preserveAspectRatio="none" width="100%" height="100%" overflow="visible" style="display: block;" viewBox="0 0 21 35" fill="none" xmlns="http://www.w3.org/2000/svg">
<g id="Group">
<g id="Group_2">
<path id="Vector" fill-rule="evenodd" clip-rule="evenodd" d="M19.8282 30.9624V32.7438C19.8275 33.088 19.6904 33.4178 19.4469 33.6611C19.2035 33.9043 18.8735 34.0411 18.5294 34.0415H2.25586C1.91171 34.0411 1.58175 33.9043 1.33829 33.661C1.09484 33.4178 0.957737 33.088 0.957031 32.7438V30.9624H19.8282Z" fill="var(--fill-0, white)"/>
<path id="Vector_2" fill-rule="evenodd" clip-rule="evenodd" d="M5.76666 2.45554L5.27994 0.956621H15.5056L15.018 2.45554H5.76666Z" fill="var(--fill-0, white)"/>
</g>
<path id="Vector_3" fill-rule="evenodd" clip-rule="evenodd" d="M12.4052 32.5021C12.4053 32.574 12.3913 32.6452 12.3638 32.7117C12.3364 32.7782 12.2962 32.8386 12.2454 32.8895C12.1946 32.9405 12.1342 32.9809 12.0678 33.0085C12.0014 33.036 11.9302 33.0503 11.8583 33.0503H8.92725C8.78185 33.0503 8.64241 32.9926 8.53959 32.8897C8.43677 32.7869 8.37901 32.6475 8.37901 32.5021C8.37901 32.3567 8.43677 32.2172 8.53959 32.1144C8.64241 32.0116 8.78185 31.9538 8.92725 31.9538H11.8582C11.9301 31.9539 12.0013 31.9681 12.0677 31.9957C12.1341 32.0233 12.1944 32.0637 12.2452 32.1146C12.296 32.1655 12.3363 32.226 12.3637 32.2924C12.3911 32.3589 12.4052 32.4302 12.405 32.5021H12.4052ZM18.5295 33.905C18.8374 33.9046 19.1326 33.7822 19.3504 33.5645C19.5682 33.3469 19.6909 33.0518 19.6916 32.7439V31.0991H1.09389V32.7438C1.09457 33.0517 1.21727 33.3468 1.43509 33.5644C1.65291 33.782 1.9481 33.9044 2.256 33.9048L18.5295 33.905ZM2.25586 1.09327C1.94795 1.09369 1.65276 1.21612 1.43494 1.43374C1.21713 1.65137 1.09444 1.94645 1.09375 2.25436V30.0059H19.6915V2.25436C19.6908 1.94645 19.5681 1.65137 19.3503 1.43374C19.1325 1.21612 18.8373 1.09369 18.5294 1.09327H16.4677L15.8369 3.03468C15.8011 3.14442 15.7315 3.24003 15.6381 3.30781C15.5446 3.37559 15.4322 3.41207 15.3167 3.41202H5.46868C5.35324 3.41208 5.24074 3.37561 5.1473 3.30783C5.05385 3.24004 4.98425 3.14443 4.94847 3.03468L4.31765 1.09327H2.25586ZM15.3174 1.09327L14.9188 2.31882H5.86605L5.46807 1.09327H15.3174ZM18.5295 0H2.25586C1.65803 0.000668586 1.08486 0.238347 0.661996 0.660933C0.239128 1.08352 0.00106727 1.65653 0 2.25436V32.7439C0.000525383 33.3419 0.238412 33.9153 0.661397 34.338C1.08438 34.7607 1.65787 34.9982 2.25586 34.9983H18.5295C19.1275 34.9982 19.701 34.7607 20.124 34.338C20.5469 33.9153 20.7848 33.3419 20.7854 32.7439V2.25436C20.7843 1.65653 20.5462 1.08352 20.1234 0.660933C19.7005 0.238347 19.1273 0.000668586 18.5295 0Z" fill="var(--fill-0, #EDA95A)"/>
</g>
</svg>
