<svg xmlns="http://www.w3.org/2000/svg" width="430" height="430" fill="none" viewBox="0 0 430 430"><path fill="#ffc738" d="m205.571 106.928 7.307-7.307a3 3 0 0 1 4.243 0l7.306 7.307c14.512 14.512 18.913 35.306 13.203 53.628V207.5h-45.261v-46.944c-5.71-18.322-1.31-39.116 13.202-53.628"/><path fill="#ffc738" d="M192.33 128.849a53.5 53.5 0 0 0-2.38 15.787c0 5.372.806 10.745 2.419 15.92V207.5h22.63V98.743c-.767 0-1.535.293-2.121.878l-7.307 7.307c-6.349 6.349-10.762 13.901-13.241 21.921" opacity=".5" style="mix-blend-mode:multiply"/><path stroke="#b26836" stroke-linecap="round" stroke-linejoin="round" stroke-width="7" d="M271.5 119.167v36.666m-113-36.666v36.666"/><path fill="#ffc738" d="M161.667 150.834H158a3 3 0 0 0-3 3V197.5l60 53.334v-46.667c0-29.455-23.878-53.333-53.333-53.333"/><path fill="#ffc738" d="M161.667 197.5H155v46.667l60 53.333v-46.667c0-29.455-23.878-53.333-53.333-53.333"/><path fill="#ffc738" d="M161.667 197.5H155v46.667l60 53.333v-46.667c0-29.455-23.878-53.333-53.333-53.333" opacity=".5" style="mix-blend-mode:multiply"/><path fill="#ffc738" d="M155 244.166h6.667c29.455 0 53.333 23.878 53.333 53.334v6.666h-6.667c-29.455 0-53.333-23.878-53.333-53.333zm113.333-93.333H272a3 3 0 0 1 3 3V197.5l-60 58.334v-51.667c0-29.455 23.878-53.334 53.333-53.334"/><path fill="#ffc738" d="M268.333 150.833H272a3 3 0 0 1 3 3V197.5l-60 58.334v-51.667c0-29.455 23.878-53.334 53.333-53.334" opacity=".5" style="mix-blend-mode:multiply"/><path fill="#ffc738" d="M268.333 197.5H275v46.667L215 297.5v-46.667c0-29.455 23.878-53.333 53.333-53.333"/><path fill="#ffc738" d="M275 244.167h-6.667c-29.455 0-53.333 23.878-53.333 53.333v6.667h6.667c29.455 0 53.333-23.879 53.333-53.334z"/><path fill="#ffc738" d="M275 244.167h-6.667c-29.455 0-53.333 23.878-53.333 53.333v6.667h6.667c29.455 0 53.333-23.879 53.333-53.334z" opacity=".5" style="mix-blend-mode:multiply"/><path fill="#ffc738" d="M175 152.514v88.319c0 29.455 23.878 53.333 53.333 53.333l13.334.001c4.592 0 9.049-.581 13.301-1.673a53.1 53.1 0 0 1-33.301 11.673l-13.334-.001c-29.455 0-53.333-23.878-53.333-53.333v-96.999a3 3 0 0 1 3-3h3.667c4.604 0 9.071.583 13.333 1.68" opacity=".5" style="mix-blend-mode:multiply"/><path stroke="#b26836" stroke-linecap="round" stroke-linejoin="round" stroke-width="7" d="M215 182.5v155"/><path stroke="#177654" stroke-linecap="round" stroke-linejoin="round" stroke-miterlimit="10" stroke-width="7" d="M333.44 333.44c-65.412 65.413-171.468 65.413-236.88 0s-65.413-171.468 0-236.88m236.88 236.88c65.413-65.412 65.413-171.468 0-236.88s-171.468-65.413-236.88 0m236.88 236.88L96.56 96.56"/></svg>