<svg preserveAspectRatio="none" width="100%" height="100%" overflow="visible" style="display: block;" viewBox="0 0 111 32" fill="none" xmlns="http://www.w3.org/2000/svg">
<g id="Group">
<path id="BG" d="M106.667 0H4.10256C1.84718 0 0 1.801 0 4V28C0 30.199 1.84718 32 4.10256 32H106.667C108.922 32 110.769 30.199 110.769 28V4C110.769 1.801 108.922 0 106.667 0Z" fill="var(--fill-0, #0A090B)"/>
<g id="Border">
</g>
<g id="Icon">
<path id="Vector" d="M8.56308 25.9689C8.32206 25.7229 8.18257 25.3399 8.18257 24.8439V7.15194C8.18257 6.65594 8.32206 6.27294 8.56308 6.02694L8.62257 5.97294L18.7908 15.8829V16.1169L8.62257 26.0269L8.56308 25.9689Z" fill="url(#paint0_linear_2001_3389)"/>
<path id="Vector_2" d="M22.1732 12.578L18.7875 15.883V16.117L22.1773 19.422L22.2532 19.379L26.2675 17.152C27.4132 16.52 27.4132 15.48 26.2675 14.844L22.2532 12.621L22.1732 12.578V12.578Z" fill="url(#paint1_linear_2001_3389)"/>
<path id="Vector_3" d="M22.2549 12.6212L18.7893 16.0002L8.56158 6.02718C8.94209 5.63718 9.5626 5.59017 10.2682 5.98018L22.2549 12.6212" fill="url(#paint2_linear_2001_3389)"/>
<path id="Vector_4" d="M22.2549 19.379L10.2682 26.02C9.5626 26.406 8.94209 26.359 8.56158 25.969L18.7893 16L22.2549 19.379Z" fill="url(#paint3_linear_2001_3389)"/>
</g>
<g id="GET IT ON">
<path id="G" d="M38.9082 23.805C38.9082 23.137 38.703 22.602 38.2989 22.203C37.8343 21.73 37.2292 21.492 36.4876 21.492C35.7789 21.492 35.1738 21.734 34.6774 22.211C34.1799 22.695 33.9317 23.289 33.9317 24C33.9317 24.711 34.1799 25.305 34.6774 25.785C35.1738 26.266 35.7789 26.508 36.4876 26.508C36.8405 26.508 37.1769 26.437 37.4979 26.305C37.8179 26.172 38.0784 25.992 38.2671 25.77L37.8384 25.348C37.5092 25.727 37.061 25.914 36.4876 25.914C35.9707 25.914 35.5225 25.738 35.142 25.383C34.7656 25.027 34.5769 24.566 34.5769 24C34.5769 23.434 34.7656 22.969 35.142 22.613C35.5225 22.262 35.9707 22.082 36.4876 22.082C37.0364 22.082 37.4979 22.262 37.862 22.617C38.102 22.852 38.2384 23.176 38.2743 23.59H36.4876V24.168H38.8712C38.9 24.043 38.9082 23.922 38.9082 23.805V23.805Z" fill="var(--fill-0, white)" stroke="var(--stroke-0, white)" stroke-width="0.16" stroke-miterlimit="10"/>
<path id="E" d="M42.6884 25.8091H40.4494V24.2891H42.4679V23.7111H40.4494V22.1911H42.6884V21.6021H39.8156V26.3981H42.6884V25.8091Z" fill="var(--fill-0, white)" stroke="var(--stroke-0, white)" stroke-width="0.16" stroke-miterlimit="10"/>
<path id="T" d="M45.3564 21.6021H44.7225V25.8091H43.3492V26.3981H46.7308V25.8091H45.3564V21.6021V21.6021Z" fill="var(--fill-0, white)" stroke="var(--stroke-0, white)" stroke-width="0.16" stroke-miterlimit="10"/>
<path id="I" d="M49.1801 21.6021V26.3981H49.813V21.6021H49.1801Z" fill="var(--fill-0, white)" stroke="var(--stroke-0, white)" stroke-width="0.16" stroke-miterlimit="10"/>
<path id="T_2" d="M52.62 21.6021H51.9913V25.8091H50.6128V26.3981H53.9985V25.8091H52.62V21.6021Z" fill="var(--fill-0, white)" stroke="var(--stroke-0, white)" stroke-width="0.16" stroke-miterlimit="10"/>
<path id="O" d="M60.3969 22.219C59.9118 21.734 59.3108 21.492 58.5939 21.492C57.8728 21.492 57.2718 21.734 56.7867 22.219C56.3026 22.703 56.0616 23.297 56.0616 24C56.0616 24.703 56.3026 25.297 56.7867 25.781C57.2718 26.266 57.8728 26.508 58.5939 26.508C59.3067 26.508 59.9077 26.266 60.3928 25.777C60.881 25.289 61.1221 24.699 61.1221 24C61.1221 23.297 60.881 22.703 60.3969 22.219ZM57.2554 22.621C57.6205 22.262 58.0646 22.082 58.5939 22.082C59.119 22.082 59.5672 22.262 59.9282 22.621C60.2923 22.98 60.4769 23.441 60.4769 24C60.4769 24.559 60.2923 25.02 59.9282 25.379C59.5672 25.738 59.119 25.918 58.5939 25.918C58.0646 25.918 57.6205 25.738 57.2554 25.379C56.8913 25.02 56.7067 24.559 56.7067 24C56.7067 23.441 56.8913 22.98 57.2554 22.621V22.621Z" fill="var(--fill-0, white)" stroke="var(--stroke-0, white)" stroke-width="0.16" stroke-miterlimit="10"/>
<path id="N" d="M62.0095 21.6021V26.3981H62.7787L65.1705 22.6681H65.1982L65.1705 23.5901V26.3981H65.8033V21.6021H65.1428L62.6382 25.5161H62.6105L62.6382 24.5901V21.6021H62.0095V21.6021Z" fill="var(--fill-0, white)" stroke="var(--stroke-0, white)" stroke-width="0.16" stroke-miterlimit="10"/>
</g>
<g id="Google Play">
<path id="Google Play_2" d="M55.9036 14.5981C53.9765 14.5981 52.4021 13.1681 52.4021 11.1951C52.4021 9.23808 53.9765 7.79308 55.9036 7.79308C57.8349 7.79308 59.4093 9.23808 59.4093 11.1951C59.4093 13.1681 57.8349 14.5981 55.9036 14.5981ZM55.9036 9.13308C54.8462 9.13308 53.9365 9.98408 53.9365 11.1951C53.9365 12.4221 54.8462 13.2581 55.9036 13.2581C56.9611 13.2581 57.8749 12.4221 57.8749 11.1951C57.8749 9.98408 56.9611 9.13308 55.9036 9.13308V9.13308ZM48.2636 14.5981C46.3324 14.5981 44.7621 13.1681 44.7621 11.1951C44.7621 9.23808 46.3324 7.79308 48.2636 7.79308C50.1939 7.79308 51.7652 9.23808 51.7652 11.1951C51.7652 13.1681 50.1939 14.5981 48.2636 14.5981ZM48.2636 9.13308C47.2052 9.13308 46.2924 9.98408 46.2924 11.1951C46.2924 12.4221 47.2052 13.2581 48.2636 13.2581C49.3211 13.2581 50.2308 12.4221 50.2308 11.1951C50.2308 9.98408 49.3211 9.13308 48.2636 9.13308ZM39.1724 13.5551V12.1091H42.7139C42.6103 11.3011 42.3334 10.7071 41.9088 10.2931C41.3919 9.79308 40.5867 9.23808 39.1724 9.23808C36.9929 9.23808 35.2862 10.9531 35.2862 13.0781C35.2862 15.2031 36.9929 16.9181 39.1724 16.9181C40.3508 16.9181 41.2083 16.4691 41.8411 15.8871L42.8862 16.9061C42.0011 17.7301 40.8236 18.3631 39.1724 18.3631C36.1836 18.3631 33.6719 15.9921 33.6719 13.0781C33.6719 10.1641 36.1836 7.79308 39.1724 7.79308C40.7877 7.79308 42.0011 8.30908 42.9549 9.27708C43.9324 10.2301 44.237 11.5701 44.237 12.6521C44.237 12.9881 44.2083 13.2971 44.157 13.5551H39.1724ZM76.3477 12.4341C76.0595 13.1951 75.1703 14.5981 73.359 14.5981C71.5641 14.5981 70.0698 13.2191 70.0698 11.1951C70.0698 9.28908 71.5488 7.79308 73.5313 7.79308C75.1344 7.79308 76.0595 8.74608 76.44 9.30108L75.2503 10.0741C74.8534 9.50808 74.3129 9.13308 73.5313 9.13308C72.7549 9.13308 72.198 9.48008 71.8411 10.1641L76.5088 12.0471L76.3477 12.4341V12.4341ZM71.5888 11.3011C71.5488 12.6131 72.6339 13.2851 73.4113 13.2851C74.0206 13.2851 74.5375 12.9881 74.7098 12.5631L71.5888 11.3011V11.3011ZM67.7949 8.00008H69.3293V18.0001H67.7949V8.00008ZM65.2821 13.8401H65.2308C64.8862 14.2381 64.2288 14.5981 63.3959 14.5981C61.6483 14.5981 60.0503 13.1021 60.0503 11.1841C60.0503 9.27708 61.6483 7.79308 63.3959 7.79308C64.2288 7.79308 64.8862 8.15608 65.2308 8.56608H65.2821V8.07808C65.2821 6.77708 64.5693 6.07808 63.4195 6.07808C62.4821 6.07808 61.9006 6.73808 61.6606 7.29308L60.3262 6.75008C60.7108 5.84808 61.7293 4.73808 63.4195 4.73808C65.2185 4.73808 66.7365 5.77008 66.7365 8.28108V14.3911H65.2821V13.8401V13.8401ZM63.5272 9.13308C62.4698 9.13308 61.5847 9.99608 61.5847 11.1841C61.5847 12.3831 62.4698 13.2581 63.5272 13.2581C64.5693 13.2581 65.3908 12.3831 65.3908 11.1841C65.3908 9.99608 64.5693 9.13308 63.5272 9.13308V9.13308ZM83.5313 18.0001H79.8616V8.00008H81.3918V11.7891H83.5313C85.2308 11.7891 86.8975 12.9881 86.8975 14.8951C86.8975 16.8011 85.2267 18.0001 83.5313 18.0001V18.0001ZM83.5713 13.1801H81.3918V16.6091H83.5713C84.7139 16.6091 85.3662 15.6841 85.3662 14.8951C85.3662 14.1211 84.7139 13.1801 83.5713 13.1801ZM93.0308 14.6171C91.9252 14.6171 90.7754 14.1411 90.3026 13.0861L91.6605 12.5311C91.9529 13.0861 92.4903 13.2661 93.0585 13.2661C93.8523 13.2661 94.6575 12.8011 94.6698 11.9801V11.8751C94.3929 12.0311 93.8 12.2621 93.0708 12.2621C91.6082 12.2621 90.118 11.4771 90.118 10.0121C90.118 8.67208 91.3159 7.80908 92.6626 7.80908C93.6923 7.80908 94.2605 8.26208 94.6175 8.78908H94.6698V8.01608H96.1477V11.8521C96.1477 13.6251 94.7898 14.6171 93.0308 14.6171ZM92.8462 9.13708C92.3457 9.13708 91.6482 9.37908 91.6482 9.98408C91.6482 10.7581 92.518 11.0551 93.2708 11.0551C93.9446 11.0551 94.2605 10.9101 94.6698 10.7191C94.5498 9.79308 93.7323 9.13708 92.8462 9.13708V9.13708ZM101.532 14.3981L99.7734 10.0631H99.7211L97.9026 14.3981H96.2523L98.9846 8.34008L97.4257 4.96908H99.0246L103.235 14.3981H101.532V14.3981ZM87.7385 8.00008H89.2729V18.0001H87.7385V8.00008Z" fill="var(--fill-0, white)"/>
</g>
</g>
<defs>
<linearGradient id="paint0_linear_2001_3389" x1="17.888" y1="6.9677" x2="4.46634" y2="20.7335" gradientUnits="userSpaceOnUse">
<stop stop-color="#00A0FF"/>
<stop offset="0.0066" stop-color="#00A1FF"/>
<stop offset="0.2601" stop-color="#00BEFF"/>
<stop offset="0.5122" stop-color="#00D2FF"/>
<stop offset="0.7604" stop-color="#00DFFF"/>
<stop offset="1" stop-color="#00E3FF"/>
</linearGradient>
<linearGradient id="paint1_linear_2001_3389" x1="27.7594" y1="16.0011" x2="7.90549" y2="16.0011" gradientUnits="userSpaceOnUse">
<stop stop-color="#FFE000"/>
<stop offset="0.4087" stop-color="#FFBD00"/>
<stop offset="0.7754" stop-color="#FFA500"/>
<stop offset="1" stop-color="#FF9C00"/>
</linearGradient>
<linearGradient id="paint2_linear_2001_3389" x1="20.3704" y1="17.8371" x2="2.16959" y2="36.5045" gradientUnits="userSpaceOnUse">
<stop stop-color="#FF3A44"/>
<stop offset="1" stop-color="#C31162"/>
</linearGradient>
<linearGradient id="paint3_linear_2001_3389" x1="5.98706" y1="0.14093" x2="14.1145" y2="8.47673" gradientUnits="userSpaceOnUse">
<stop stop-color="#32A071"/>
<stop offset="0.0685" stop-color="#2DA771"/>
<stop offset="0.4762" stop-color="#15CF74"/>
<stop offset="0.8009" stop-color="#06E775"/>
<stop offset="1" stop-color="#00F076"/>
</linearGradient>
</defs>
</svg>
